<mxfile host="app.diagrams.net" agent="Mozilla/5.0 (Windows NT 10.0; Win64; x64) AppleWebKit/537.36 (KHTML, like Gecko) Chrome/141.0.0.0 Safari/537.36" version="28.2.5">
  <diagram name="Page-1" id="gHEClbTnxlHgqFP3nz2F">
    <mxGraphModel dx="872" dy="431" grid="1" gridSize="10" guides="1" tooltips="1" connect="1" arrows="1" fold="1" page="1" pageScale="1" pageWidth="827" pageHeight="1169" math="0" shadow="0">
      <root>
        <mxCell id="0" />
        <mxCell id="1" parent="0" />
        <mxCell id="BcaVDK_PR50FUNii-7ZA-17" style="edgeStyle=orthogonalEdgeStyle;rounded=0;orthogonalLoop=1;jettySize=auto;html=1;entryX=0.5;entryY=0;entryDx=0;entryDy=0;" edge="1" parent="1" source="aZT-aPpyfwkHjN3IkPu0-1" target="BcaVDK_PR50FUNii-7ZA-2">
          <mxGeometry relative="1" as="geometry" />
        </mxCell>
        <mxCell id="aZT-aPpyfwkHjN3IkPu0-1" value="&lt;font style=&quot;font-size: 15px;&quot;&gt;เริ่มต้น&lt;/font&gt;" style="ellipse;whiteSpace=wrap;html=1;" parent="1" vertex="1">
          <mxGeometry x="385" y="10" width="120" height="80" as="geometry" />
        </mxCell>
        <mxCell id="lp9bg5CuKxctWa9kOgLU-7" value="&lt;font style=&quot;font-size: 17px;&quot;&gt;จบการทำงาน&lt;/font&gt;" style="ellipse;whiteSpace=wrap;html=1;" parent="1" vertex="1">
          <mxGeometry x="382" y="970" width="120" height="80" as="geometry" />
        </mxCell>
        <mxCell id="BcaVDK_PR50FUNii-7ZA-16" style="edgeStyle=orthogonalEdgeStyle;rounded=0;orthogonalLoop=1;jettySize=auto;html=1;entryX=0.5;entryY=0;entryDx=0;entryDy=0;" edge="1" parent="1" source="BcaVDK_PR50FUNii-7ZA-2" target="BcaVDK_PR50FUNii-7ZA-3">
          <mxGeometry relative="1" as="geometry" />
        </mxCell>
        <mxCell id="BcaVDK_PR50FUNii-7ZA-2" value="&lt;font style=&quot;font-size: 15px;&quot;&gt;ประกาศตัวแปร Num&lt;/font&gt;&lt;div&gt;&lt;span style=&quot;font-size: 15px;&quot;&gt;Age&lt;/span&gt;&lt;/div&gt;" style="rounded=0;whiteSpace=wrap;html=1;" vertex="1" parent="1">
          <mxGeometry x="376" y="140" width="138" height="60" as="geometry" />
        </mxCell>
        <mxCell id="BcaVDK_PR50FUNii-7ZA-15" style="edgeStyle=orthogonalEdgeStyle;rounded=0;orthogonalLoop=1;jettySize=auto;html=1;entryX=0.5;entryY=0;entryDx=0;entryDy=0;" edge="1" parent="1" source="BcaVDK_PR50FUNii-7ZA-3" target="BcaVDK_PR50FUNii-7ZA-4">
          <mxGeometry relative="1" as="geometry" />
        </mxCell>
        <mxCell id="BcaVDK_PR50FUNii-7ZA-3" value="&lt;font style=&quot;font-size: 16px;&quot;&gt;รับชื่อจากผู้ใช้&lt;/font&gt;" style="rounded=0;whiteSpace=wrap;html=1;" vertex="1" parent="1">
          <mxGeometry x="370" y="280" width="150" height="60" as="geometry" />
        </mxCell>
        <mxCell id="BcaVDK_PR50FUNii-7ZA-14" style="edgeStyle=orthogonalEdgeStyle;rounded=0;orthogonalLoop=1;jettySize=auto;html=1;entryX=0.5;entryY=0;entryDx=0;entryDy=0;" edge="1" parent="1" source="BcaVDK_PR50FUNii-7ZA-4" target="BcaVDK_PR50FUNii-7ZA-5">
          <mxGeometry relative="1" as="geometry" />
        </mxCell>
        <mxCell id="BcaVDK_PR50FUNii-7ZA-4" value="&lt;font style=&quot;font-size: 16px;&quot;&gt;รับอายุจากผู้ใช้&lt;/font&gt;" style="rounded=1;whiteSpace=wrap;html=1;" vertex="1" parent="1">
          <mxGeometry x="379" y="390" width="132" height="70" as="geometry" />
        </mxCell>
        <mxCell id="BcaVDK_PR50FUNii-7ZA-11" style="edgeStyle=orthogonalEdgeStyle;rounded=0;orthogonalLoop=1;jettySize=auto;html=1;entryX=0.5;entryY=0;entryDx=0;entryDy=0;" edge="1" parent="1" source="BcaVDK_PR50FUNii-7ZA-5" target="BcaVDK_PR50FUNii-7ZA-6">
          <mxGeometry relative="1" as="geometry" />
        </mxCell>
        <mxCell id="BcaVDK_PR50FUNii-7ZA-12" style="edgeStyle=orthogonalEdgeStyle;rounded=0;orthogonalLoop=1;jettySize=auto;html=1;entryX=0.5;entryY=0;entryDx=0;entryDy=0;" edge="1" parent="1" source="BcaVDK_PR50FUNii-7ZA-5" target="BcaVDK_PR50FUNii-7ZA-7">
          <mxGeometry relative="1" as="geometry" />
        </mxCell>
        <mxCell id="BcaVDK_PR50FUNii-7ZA-5" value="&lt;font style=&quot;font-size: 16px;&quot;&gt;แสดงผลลัพธ์จากผู้ใช้&lt;/font&gt;" style="rhombus;whiteSpace=wrap;html=1;" vertex="1" parent="1">
          <mxGeometry x="359" y="510" width="172" height="140" as="geometry" />
        </mxCell>
        <mxCell id="BcaVDK_PR50FUNii-7ZA-9" style="edgeStyle=orthogonalEdgeStyle;rounded=0;orthogonalLoop=1;jettySize=auto;html=1;entryX=0;entryY=0.5;entryDx=0;entryDy=0;" edge="1" parent="1" source="BcaVDK_PR50FUNii-7ZA-6" target="BcaVDK_PR50FUNii-7ZA-8">
          <mxGeometry relative="1" as="geometry">
            <Array as="points">
              <mxPoint x="280" y="860" />
            </Array>
          </mxGeometry>
        </mxCell>
        <mxCell id="BcaVDK_PR50FUNii-7ZA-6" value="แสดง Hello + ชื่อ" style="rounded=0;whiteSpace=wrap;html=1;" vertex="1" parent="1">
          <mxGeometry x="220" y="720" width="120" height="60" as="geometry" />
        </mxCell>
        <mxCell id="BcaVDK_PR50FUNii-7ZA-10" style="edgeStyle=orthogonalEdgeStyle;rounded=0;orthogonalLoop=1;jettySize=auto;html=1;entryX=1;entryY=0.5;entryDx=0;entryDy=0;" edge="1" parent="1" source="BcaVDK_PR50FUNii-7ZA-7" target="BcaVDK_PR50FUNii-7ZA-8">
          <mxGeometry relative="1" as="geometry">
            <Array as="points">
              <mxPoint x="600" y="860" />
            </Array>
          </mxGeometry>
        </mxCell>
        <mxCell id="BcaVDK_PR50FUNii-7ZA-7" value="&amp;nbsp;แสดง Age = + อายุ" style="rounded=0;whiteSpace=wrap;html=1;" vertex="1" parent="1">
          <mxGeometry x="550" y="720" width="120" height="60" as="geometry" />
        </mxCell>
        <mxCell id="BcaVDK_PR50FUNii-7ZA-13" style="edgeStyle=orthogonalEdgeStyle;rounded=0;orthogonalLoop=1;jettySize=auto;html=1;entryX=0.5;entryY=0;entryDx=0;entryDy=0;" edge="1" parent="1" source="BcaVDK_PR50FUNii-7ZA-8" target="lp9bg5CuKxctWa9kOgLU-7">
          <mxGeometry relative="1" as="geometry" />
        </mxCell>
        <mxCell id="BcaVDK_PR50FUNii-7ZA-8" value="" style="ellipse;whiteSpace=wrap;html=1;aspect=fixed;" vertex="1" parent="1">
          <mxGeometry x="422" y="840" width="40" height="40" as="geometry" />
        </mxCell>
      </root>
    </mxGraphModel>
  </diagram>
</mxfile>
